# xmcd
#
# Track frame offsets:
#	150
#	21431
#	42614
#	58136
#	72734
#	99548
#	122402
#	148711
#	162364
#	172355
#	207040
#
# Disc length: 3360 seconds
#
# Revision: 1
# Processed by: cddbd v1.4PL0 Copyright (c) Steve Scherf et al.
# Submitted via: audiograbber 1.80
#
DISCID=ad0d1e0b
DTITLE=Kern András - Engem vársz
DYEAR=1900
DGENRE=
TTITLE0=Engem vársz
TTITLE1=Forgass szerelem
TTITLE2=Gellért szálló
TTITLE3=Madár a dróton
TTITLE4=Most elõször Pestet
TTITLE5=A híres kék ballon
TTITLE6=Persze tudjuk jól
TTITLE7=Hé, így nem jó, csak fáj, menj már
TTITLE8=Ki tûzben lobog
TTITLE9=Dal utca hét
TTITLE10=Adatsáv
EXTD=
EXTT0=
EXTT1=
EXTT2=
EXTT3=
EXTT4=
EXTT5=
EXTT6=
EXTT7=
EXTT8=
EXTT9=
EXTT10=
PLAYORDER=
